<svg xmlns="http://www.w3.org/2000/svg" width="1200" height="675" viewBox="0 0 1200 675"><rect width="1200" height="675" fill="#12151d"/><ellipse cx="600" cy="395" rx="470" ry="190" fill="#b68a4b"/><ellipse cx="600" cy="390" rx="520" ry="230" fill="none" stroke="#77716a" stroke-width="35"/><g fill="#3c3b3d"><rect x="175" y="235" width="28" height="150"/><rect x="995" y="235" width="28" height="150"/><rect x="585" y="155" width="28" height="150"/></g><g transform="translate(560 325)"><rect x="-28" y="20" width="56" height="90" rx="28" fill="#3b77d6"/><circle cy="4" r="32" fill="#dca56b"/><circle cx="-45" cy="62" r="16" fill="#dca56b"/><circle cx="45" cy="62" r="16" fill="#dca56b"/></g><g transform="translate(720 350) scale(.8)"><rect x="-28" y="20" width="56" height="90" rx="28" fill="#62a34b"/><circle cy="4" r="32" fill="#62a34b"/><polygon points="0,2 40,14 0,24" fill="#31582b"/><circle cx="-45" cy="62" r="16" fill="#62a34b"/><circle cx="45" cy="62" r="16" fill="#62a34b"/></g><text x="60" y="95" fill="#f4ead3" font-family="Arial" font-size="54" font-weight="700">Goblin Colosseum</text><text x="64" y="142" fill="#d2bd84" font-family="Arial" font-size="25">Bare-knuckle wave roguelike prototype</text></svg>